<svg width="224" height="24" viewBox="0 0 224 24" fill="none" xmlns="http://www.w3.org/2000/svg">
<path d="M176 6H165.5C164.668 6 164 6.675 164 7.5V18C164 18.825 164.668 19.5 165.5 19.5H176C176.833 19.5 177.5 18.825 177.5 18V7.5C177.5 6.675 176.833 6 176 6ZM169.25 16.5L165.5 12.75L166.557 11.6925L169.25 14.3775L174.943 8.685L176 9.75L169.25 16.5Z" fill="#34A853"/>
<path d="M12.4362 9.90689L10.7175 6.91506C10.3983 6.35955 9.59787 6.35689 9.27507 6.91027L7.46145 10.0193C7.22123 10.4311 6.81616 10.7203 6.34868 10.8138L3.87058 11.3095C3.22876 11.4378 2.97867 12.2221 3.42768 12.6983L5.22004 14.5993C5.60331 15.0058 5.75741 15.5773 5.63046 16.1213L4.81918 19.5983C4.65241 20.313 5.42416 20.8787 6.05555 20.5045L9.15073 18.6703C9.67464 18.3599 10.3262 18.3599 10.8501 18.6703L13.9453 20.5045C14.5766 20.8787 15.3484 20.313 15.1816 19.5983L14.3632 16.0909C14.2402 15.5637 14.3809 15.0095 14.7406 14.6049L16.5352 12.586C16.9628 12.105 16.7069 11.3415 16.0758 11.2152L13.5545 10.711C13.0832 10.6167 12.6756 10.3236 12.4362 9.90689Z" stroke="#EDD146" stroke-width="1.5" stroke-miterlimit="10"/>
<path d="M52.4362 9.90689L50.7175 6.91506C50.3983 6.35955 49.5979 6.35689 49.2751 6.91027L47.4614 10.0193C47.2212 10.4311 46.8162 10.7203 46.3487 10.8138L43.8706 11.3095C43.2288 11.4378 42.9787 12.2221 43.4277 12.6983L45.22 14.5993C45.6033 15.0058 45.7574 15.5773 45.6305 16.1213L44.8192 19.5983C44.6524 20.313 45.4242 20.8787 46.0556 20.5045L49.1507 18.6703C49.6746 18.3599 50.3262 18.3599 50.8501 18.6703L53.9453 20.5045C54.5766 20.8787 55.3484 20.313 55.1816 19.5983L54.3632 16.0909C54.2402 15.5637 54.3809 15.0095 54.7406 14.6049L56.5352 12.586C56.9628 12.105 56.7069 11.3415 56.0758 11.2152L53.5545 10.711C53.0832 10.6167 52.6756 10.3236 52.4362 9.90689Z" fill="#EDD146"/>
<path d="M97.9996 14.1998C97.9996 13.4599 97.9384 12.9199 97.8058 12.3599H89.1833V15.6998H94.2445C94.1425 16.5298 93.5915 17.7798 92.367 18.6198L92.3498 18.7316L95.0761 20.8014L95.2649 20.8198C96.9996 19.2498 97.9996 16.9398 97.9996 14.1998Z" fill="#4285F4"/>
<path d="M89.1821 23.0001C91.6616 23.0001 93.7432 22.2 95.2636 20.8201L92.3657 18.62C91.5902 19.15 90.5494 19.52 89.1821 19.52C86.7535 19.52 84.6923 17.95 83.9576 15.78L83.8499 15.789L81.0151 17.939L80.978 18.04C82.4882 20.98 85.5902 23.0001 89.1821 23.0001Z" fill="#34A853"/>
<path d="M83.9591 15.7801C83.7653 15.2201 83.6531 14.62 83.6531 14.0001C83.6531 13.38 83.7653 12.78 83.9489 12.2201L83.9438 12.1008L81.0735 9.91626L80.9796 9.96004C80.3571 11.18 80 12.5501 80 14.0001C80 15.45 80.3571 16.82 80.9796 18.04L83.9591 15.7801Z" fill="#FBBC05"/>
<path d="M89.1821 8.47996C90.9066 8.47996 92.0698 9.20996 92.7331 9.82L95.3249 7.33999C93.7331 5.89 91.6617 5 89.1821 5C85.5903 5 82.4882 7.01998 80.978 9.95994L83.9474 12.22C84.6924 10.05 86.7536 8.47996 89.1821 8.47996Z" fill="#EB4335"/>
<path d="M124.878 23C122.346 23 119.986 22.2636 118 20.9931C119.686 21.1022 122.662 20.8409 124.514 19.0751C121.729 18.9473 120.473 16.8114 120.309 15.8986C120.546 15.9899 121.674 16.0994 122.311 15.8438C119.108 15.0406 118.616 12.2292 118.725 11.3712C119.326 11.7911 120.345 11.9371 120.746 11.9006C117.761 9.76471 118.835 6.55172 119.362 5.85801C121.505 8.82591 124.715 10.4928 128.687 10.5855C128.612 10.2571 128.573 9.91511 128.573 9.56389C128.573 7.04333 130.61 5 133.123 5C134.436 5 135.619 5.55781 136.45 6.45005C137.328 6.24443 138.648 5.7631 139.294 5.34686C138.968 6.51521 137.955 7.48986 137.342 7.8511C137.337 7.83876 137.347 7.86339 137.342 7.8511C137.881 7.76968 139.337 7.48977 139.913 7.09939C139.628 7.75576 138.554 8.84709 137.673 9.45807C137.837 16.6907 132.303 23 124.878 23Z" fill="#47ACDF"/>
<path d="M209.333 8.25V6.41667C209.333 4.39162 210.975 2.75 213 2.75C215.025 2.75 216.667 4.39162 216.667 6.41667V8.25M209.517 19.25H216.483C217.51 19.25 218.023 19.25 218.416 19.0502C218.761 18.8744 219.041 18.5939 219.217 18.249C219.417 17.8568 219.417 17.3434 219.417 16.3167V11.1833C219.417 10.1566 219.417 9.64319 219.217 9.25102C219.041 8.90605 218.761 8.62559 218.416 8.44982C218.023 8.25 217.51 8.25 216.483 8.25H209.517C208.49 8.25 207.976 8.25 207.584 8.44982C207.239 8.62559 206.959 8.90605 206.783 9.25102C206.583 9.64319 206.583 10.1566 206.583 11.1833V16.3167C206.583 17.3434 206.583 17.8568 206.783 18.249C206.959 18.5939 207.239 18.8744 207.584 19.0502C207.976 19.25 208.49 19.25 209.517 19.25Z" stroke="#3C4242" stroke-width="1.5" stroke-linecap="round"/>
</svg>
