<svg width="224" height="24" viewBox="0 0 224 24" fill="none" xmlns="http://www.w3.org/2000/svg">
<path d="M11.0001 10.25C10.2707 10.25 9.57126 10.5397 9.05554 11.0555C8.53981 11.5712 8.25008 12.2707 8.25008 13C8.25008 13.7293 8.53981 14.4288 9.05554 14.9445C9.57126 15.4603 10.2707 15.75 11.0001 15.75C11.7294 15.75 12.4289 15.4603 12.9446 14.9445C13.4604 14.4288 13.7501 13.7293 13.7501 13C13.7501 12.2707 13.4604 11.5712 12.9446 11.0555C12.4289 10.5397 11.7294 10.25 11.0001 10.25ZM11.0001 17.5833C9.78451 17.5833 8.61872 17.1004 7.75917 16.2409C6.89963 15.3814 6.41675 14.2156 6.41675 13C6.41675 11.7844 6.89963 10.6186 7.75917 9.75909C8.61872 8.89955 9.78451 8.41667 11.0001 8.41667C12.2157 8.41667 13.3814 8.89955 14.241 9.75909C15.1005 10.6186 15.5834 11.7844 15.5834 13C15.5834 14.2156 15.1005 15.3814 14.241 16.2409C13.3814 17.1004 12.2157 17.5833 11.0001 17.5833ZM11.0001 6.125C6.41675 6.125 2.50258 8.97583 0.916748 13C2.50258 17.0242 6.41675 19.875 11.0001 19.875C15.5834 19.875 19.4976 17.0242 21.0834 13C19.4976 8.97583 15.5834 6.125 11.0001 6.125Z" fill="#3C4242"/>
<path d="M67.5833 8.39466L67.5138 7.45761C67.4501 6.5992 66.7083 5.93413 65.8146 5.93413H63.9937M57.5 17.4166H56.4537C55.465 17.4166 54.684 16.6089 54.7544 15.6594L55.3628 7.45761C55.4265 6.5992 56.1683 5.93413 57.0621 5.93413H58.883M58.883 5.93413V4.29378C58.883 2.93487 60.027 1.83325 61.4383 1.83325C62.8496 1.83325 63.9937 2.93487 63.9937 4.29378V5.93413M58.883 5.93413H63.9937M67.5833 13.7499C67.5833 14.7624 66.7625 15.5833 65.75 15.5833C64.7375 15.5833 63.9167 14.7624 63.9167 13.7499M62.0833 19.2499H69.4167C70.4292 19.2499 71.25 18.4291 71.25 17.4166V12.8333C71.25 11.8207 70.4292 10.9999 69.4167 10.9999H62.0833C61.0708 10.9999 60.25 11.8207 60.25 12.8333V17.4166C60.25 18.4291 61.0708 19.2499 62.0833 19.2499Z" stroke="#3C4242" stroke-width="1.5" stroke-linecap="round"/>
<path d="M170.667 15.5833L175.25 11M175.25 11L170.667 6.41667M175.25 11H164.25M164.25 2.75H163.15C161.61 2.75 160.84 2.75 160.252 3.04973C159.734 3.31338 159.313 3.73408 159.05 4.25153C158.75 4.83978 158.75 5.60986 158.75 7.15V14.85C158.75 16.3901 158.75 17.1602 159.05 17.7485C159.313 18.2659 159.734 18.6866 160.252 18.9503C160.84 19.25 161.61 19.25 163.15 19.25H164.25" stroke="#3C4242" stroke-width="1.5" stroke-linecap="round" stroke-linejoin="round"/>
<path d="M106.667 12.074C106.354 11.3928 106.354 10.607 106.667 9.92581C108.116 6.77264 111.303 4.58325 115 4.58325C118.698 4.58325 121.884 6.77265 123.334 9.92581C123.647 10.607 123.647 11.3928 123.334 12.074C121.884 15.2272 118.698 17.4166 115 17.4166C111.303 17.4166 108.116 15.2272 106.667 12.074Z" stroke="#3C4242" stroke-width="1.5"/>
<path d="M117.75 10.9999C117.75 12.5187 116.519 13.7499 115 13.7499C113.482 13.7499 112.25 12.5187 112.25 10.9999C112.25 9.48114 113.482 8.24992 115 8.24992C116.519 8.24992 117.75 9.48114 117.75 10.9999Z" stroke="#3C4242" stroke-width="1.5"/>
<path d="M220 4L206 18M220 18L206 4.00001" stroke="#3C4242" stroke-width="1.5" stroke-linecap="round"/>
</svg>
