<svg width="234" height="36" viewBox="0 0 234 36" fill="none" xmlns="http://www.w3.org/2000/svg">
<rect width="36" height="36" rx="12" fill="#F6F6F6"/>
<path d="M22.4368 19.2686L22.9311 16.0472H19.8401V13.9568C19.8401 13.0755 20.2719 12.2164 21.6563 12.2164H23.0615V9.47374C23.0615 9.47374 21.7863 9.2561 20.5671 9.2561C18.0215 9.2561 16.3577 10.799 16.3577 13.5921V16.0472H13.5281V19.2686H16.3577V27.0561H19.8401V19.2686H22.4368Z" fill="#2A2F2F"/>
<rect x="66" width="36" height="36" rx="12" fill="#F6F6F6"/>
<path d="M83.9628 14.0751C81.8129 14.0751 80.0787 15.8092 80.0787 17.9592C80.0787 20.1091 81.8129 21.8433 83.9628 21.8433C86.1127 21.8433 87.8469 20.1091 87.8469 17.9592C87.8469 15.8092 86.1127 14.0751 83.9628 14.0751ZM83.9628 20.4843C82.5734 20.4843 81.4376 19.3519 81.4376 17.9592C81.4376 16.5664 82.5701 15.434 83.9628 15.434C85.3555 15.434 86.488 16.5664 86.488 17.9592C86.488 19.3519 85.3521 20.4843 83.9628 20.4843ZM88.9117 13.9162C88.9117 14.4199 88.5061 14.8222 88.0058 14.8222C87.5021 14.8222 87.0998 14.4165 87.0998 13.9162C87.0998 13.4159 87.5055 13.0103 88.0058 13.0103C88.5061 13.0103 88.9117 13.4159 88.9117 13.9162ZM91.4842 14.8357C91.4267 13.6221 91.1495 12.5471 90.2605 11.6615C89.3748 10.7758 88.2999 10.4986 87.0863 10.4378C85.8355 10.3668 82.0867 10.3668 80.8359 10.4378C79.6257 10.4952 78.5508 10.7724 77.6617 11.6581C76.7727 12.5438 76.4989 13.6187 76.438 14.8323C76.367 16.083 76.367 19.8319 76.438 21.0827C76.4955 22.2962 76.7727 23.3712 77.6617 24.2569C78.5508 25.1425 79.6224 25.4197 80.8359 25.4806C82.0867 25.5516 85.8355 25.5516 87.0863 25.4806C88.2999 25.4231 89.3748 25.1459 90.2605 24.2569C91.1462 23.3712 91.4234 22.2962 91.4842 21.0827C91.5552 19.8319 91.5552 16.0864 91.4842 14.8357ZM89.8684 22.4247C89.6047 23.0873 89.0943 23.5977 88.4283 23.8647C87.4311 24.2603 85.0648 24.169 83.9628 24.169C82.8608 24.169 80.4911 24.2569 79.4973 23.8647C78.8347 23.6011 78.3243 23.0906 78.0572 22.4247C77.6617 21.4275 77.753 19.0612 77.753 17.9592C77.753 16.8572 77.6651 14.4875 78.0572 13.4937C78.3209 12.8311 78.8313 12.3207 79.4973 12.0536C80.4945 11.6581 82.8608 11.7494 83.9628 11.7494C85.0648 11.7494 87.4345 11.6615 88.4283 12.0536C89.0909 12.3173 89.6013 12.8277 89.8684 13.4937C90.2639 14.4909 90.1726 16.8572 90.1726 17.9592C90.1726 19.0612 90.2639 21.4309 89.8684 22.4247Z" fill="#2A2F2F"/>
<rect x="132" width="36" height="36" rx="12" fill="#F6F6F6"/>
<path d="M158.605 14.5802C158.616 14.7339 158.616 14.8877 158.616 15.0414C158.616 19.7307 155.047 25.1339 148.524 25.1339C146.514 25.1339 144.647 24.5518 143.077 23.5415C143.362 23.5744 143.637 23.5854 143.933 23.5854C145.592 23.5854 147.118 23.0254 148.337 22.0699C146.778 22.037 145.471 21.0156 145.021 19.6099C145.24 19.6429 145.46 19.6648 145.691 19.6648C146.009 19.6648 146.328 19.6209 146.624 19.5441C144.999 19.2146 143.78 17.7869 143.78 16.0627V16.0188C144.252 16.2824 144.801 16.4471 145.383 16.4691C144.428 15.8321 143.802 14.7449 143.802 13.5149C143.802 12.856 143.977 12.252 144.285 11.7248C146.031 13.8773 148.656 15.283 151.599 15.4368C151.544 15.1732 151.511 14.8987 151.511 14.6241C151.511 12.6693 153.092 11.0769 155.058 11.0769C156.08 11.0769 157.002 11.5052 157.65 12.1971C158.452 12.0433 159.22 11.7468 159.901 11.3405C159.638 12.1641 159.078 12.856 158.342 13.2953C159.056 13.2184 159.748 13.0207 160.385 12.7462C159.901 13.449 159.297 14.075 158.605 14.5802Z" fill="#2A2F2F"/>
<rect x="198" width="36" height="36" rx="12" fill="#F6F6F6"/>
<path d="M212.548 15.1259V24.1538H210.136V15.1259H212.548ZM209.986 12.7729C209.986 12.4225 210.109 12.1332 210.353 11.9052C210.598 11.6771 210.926 11.5631 211.338 11.5631C211.744 11.5631 212.069 11.6771 212.314 11.9052C212.564 12.1332 212.69 12.4225 212.69 12.7729C212.69 13.1234 212.564 13.4126 212.314 13.6407C212.069 13.8687 211.744 13.9828 211.338 13.9828C210.926 13.9828 210.598 13.8687 210.353 13.6407C210.109 13.4126 209.986 13.1234 209.986 12.7729ZM217.228 17.0533V24.1538H214.825V15.1259H217.078L217.228 17.0533ZM216.878 19.3228H216.227C216.227 18.6553 216.313 18.0545 216.486 17.5205C216.658 16.981 216.9 16.5221 217.211 16.1438C217.523 15.76 217.893 15.468 218.321 15.2677C218.755 15.0619 219.239 14.959 219.773 14.959C220.196 14.959 220.582 15.0202 220.933 15.1426C221.283 15.2649 221.584 15.4596 221.834 15.7266C222.09 15.9936 222.284 16.3468 222.418 16.7863C222.557 17.2257 222.627 17.7625 222.627 18.3966V24.1538H220.207V18.3883C220.207 17.9878 220.151 17.6763 220.04 17.4538C219.929 17.2313 219.765 17.0755 219.548 16.9865C219.336 16.892 219.075 16.8447 218.763 16.8447C218.441 16.8447 218.16 16.9087 217.921 17.0366C217.687 17.1645 217.492 17.3425 217.337 17.5706C217.186 17.7931 217.072 18.0545 216.995 18.3549C216.917 18.6553 216.878 18.9779 216.878 19.3228Z" fill="#2A2F2F"/>
</svg>
