<svg width="157" height="18" viewBox="0 0 157 18" fill="none" xmlns="http://www.w3.org/2000/svg">
<path d="M1 5.25H16M4 12.75H7M10 12.75H13M3.4 16.5H13.6C14.4401 16.5 14.8601 16.5 15.181 16.2956C15.4632 16.1159 15.6927 15.829 15.8365 15.4762C16 15.0751 16 14.5501 16 13.5V4.5C16 3.4499 16 2.92485 15.8365 2.52377C15.6927 2.17096 15.4632 1.88413 15.181 1.70436C14.8601 1.5 14.4401 1.5 13.6 1.5H3.4C2.55992 1.5 2.13988 1.5 1.81901 1.70436C1.53677 1.88413 1.3073 2.17096 1.16349 2.52377C1 2.92485 1 3.4499 1 4.5V13.5C1 14.5501 1 15.0751 1.16349 15.4762C1.3073 15.829 1.53677 16.1159 1.81901 16.2956C2.13988 16.5 2.55992 16.5 3.4 16.5Z" stroke="#3C4242" stroke-width="1.1" stroke-linecap="round"/>
<path d="M56.8 13.6667V2.46667C56.8 2.20893 56.5985 2 56.35 2H46.45C46.2015 2 46 2.20893 46 2.46667V13.6667C46 13.9244 46.2015 14.1333 46.45 14.1333H47.8M56.8 13.6667C56.8 13.9244 56.5985 14.1333 56.35 14.1333H51.4M56.8 13.6667V5.26667C56.8 5.00893 57.0015 4.8 57.25 4.8H60.2136C60.333 4.8 60.4474 4.84917 60.5318 4.93668L63.8682 8.39665C63.9526 8.48417 64 8.60287 64 8.72663V13.6667C64 13.9244 63.7985 14.1333 63.55 14.1333H62.2M56.8 13.6667C56.8 13.9244 57.0015 14.1333 57.25 14.1333H58.6M47.8 14.1333C47.8 15.1643 48.6059 16 49.6 16C50.5941 16 51.4 15.1643 51.4 14.1333M47.8 14.1333C47.8 13.1024 48.6059 12.2667 49.6 12.2667C50.5941 12.2667 51.4 13.1024 51.4 14.1333M58.6 14.1333C58.6 15.1643 59.4059 16 60.4 16C61.3941 16 62.2 15.1643 62.2 14.1333M58.6 14.1333C58.6 13.1024 59.4059 12.2667 60.4 12.2667C61.3941 12.2667 62.2 13.1024 62.2 14.1333" stroke="#3C4242" stroke-width="1.1"/>
<path d="M105.635 17H98.3651C97.3613 17 96.5476 16.2007 96.5476 15.2147V8.57964C96.5476 8.06342 95.9122 7.8049 95.5406 8.16992C95.2014 8.50317 94.6205 8.32034 94.5417 7.85546L94.0248 4.80914C93.9021 4.08569 94.2422 3.36209 94.8825 2.98474L98.1965 1.03149C98.293 0.974606 98.4175 0.99658 98.4878 1.08292C100.288 3.29381 103.712 3.29381 105.512 1.08292C105.582 0.99658 105.707 0.974606 105.803 1.03149L109.118 2.98474C109.758 3.36209 110.098 4.08569 109.975 4.80914L109.458 7.85546C109.379 8.32034 108.799 8.50317 108.459 8.16992C108.088 7.8049 107.452 8.06342 107.452 8.57964V15.2147C107.452 16.2007 106.639 17 105.635 17Z" stroke="#3C4242" stroke-width="1.1"/>
<path d="M144.444 15.2222C144.444 16.2041 143.649 17 142.667 17C141.685 17 140.889 16.2041 140.889 15.2222C140.889 14.2404 141.685 13.4444 142.667 13.4444C143.649 13.4444 144.444 14.2404 144.444 15.2222ZM144.444 15.2222H151.556C152.537 15.2222 153.333 14.4263 153.333 13.4444V9.88889M151.556 2.77778C151.556 3.75962 152.351 4.55556 153.333 4.55556C154.315 4.55556 155.111 3.75962 155.111 2.77778C155.111 1.79594 154.315 1 153.333 1C152.351 1 151.556 1.79594 151.556 2.77778ZM151.556 2.77778H144.444C143.463 2.77778 142.667 3.57372 142.667 4.55556V8.11111M156 11.6667L153.648 9.13983C153.474 8.95339 153.193 8.95339 153.019 9.13983L150.667 11.6667M145.333 6.33333L142.981 8.86017C142.807 9.04661 142.526 9.04661 142.352 8.86017L140 6.33333" stroke="#3C4242" stroke-width="1.1" stroke-linecap="round"/>
</svg>
