<svg width="87" height="56" viewBox="0 0 87 56" fill="none" xmlns="http://www.w3.org/2000/svg">
<rect x="0.5" y="0.5" width="85.1876" height="54.9957" rx="4.5" stroke="#9747FF" stroke-dasharray="10 5"/>
<path d="M29 22C25.0486 22 21.6544 24.374 20.152 27.7727C20.0496 28.0043 20.0496 28.2684 20.152 28.5C21.6544 31.8987 25.0486 34.2727 29 34.2727C32.9514 34.2727 36.3456 31.8987 37.848 28.5C37.9504 28.2684 37.9504 28.0043 37.848 27.7727C36.3456 24.374 32.9514 22 29 22ZM29 32.2273C26.7418 32.2273 24.9091 30.3945 24.9091 28.1364C24.9091 25.8782 26.7418 24.0455 29 24.0455C31.2582 24.0455 33.0909 25.8782 33.0909 28.1364C33.0909 30.3945 31.2582 32.2273 29 32.2273ZM29 25.6818C27.6418 25.6818 26.5455 26.7782 26.5455 28.1364C26.5455 29.4945 27.6418 30.5909 29 30.5909C30.3582 30.5909 31.4545 29.4945 31.4545 28.1364C31.4545 26.7782 30.3582 25.6818 29 25.6818Z" fill="#807D7E"/>
<path d="M64.9682 20.8699L64.2322 20.1339C64.0242 19.9259 63.6402 19.9579 63.4002 20.2459L60.84 22.7898C59.688 22.2939 58.4241 22.0539 57.096 22.0539C53.1439 22.0698 49.7201 24.3738 48.072 27.686C47.976 27.894 47.976 28.1499 48.072 28.3259C48.84 29.894 49.992 31.19 51.432 32.1659L49.336 34.2939C49.096 34.5339 49.064 34.9179 49.2241 35.1259L49.96 35.8618C50.168 36.0698 50.552 36.0378 50.792 35.7499L64.8399 21.702C65.1439 21.4621 65.1759 21.0781 64.9679 20.8701L64.9682 20.8699ZM57.944 25.7017C57.672 25.6377 57.3841 25.5578 57.112 25.5578C55.752 25.5578 54.6641 26.6458 54.6641 28.0057C54.6641 28.2777 54.7281 28.5657 54.8081 28.8377L53.736 29.8937C53.416 29.3338 53.24 28.7097 53.24 28.0057C53.24 25.8778 54.9521 24.1657 57.08 24.1657C57.7841 24.1657 58.4081 24.3417 58.968 24.6617L57.944 25.7017Z" fill="#807D7E"/>
<path d="M66.1206 27.686C65.5606 26.5659 64.8246 25.558 63.9127 24.7419L60.9366 27.686V28.0059C60.9366 30.1339 59.2246 31.8459 57.0966 31.8459H56.7767L54.8887 33.7339C55.5927 33.8779 56.3287 33.9739 57.0487 33.9739C61.0008 33.9739 64.4246 31.6699 66.0727 28.3418C66.2167 28.1177 66.2167 27.8938 66.1206 27.6858L66.1206 27.686Z" fill="#807D7E"/>
</svg>
