<svg width="20" height="20" viewBox="0 0 20 20" fill="none" xmlns="http://www.w3.org/2000/svg">
<path d="M6.66675 7.58341C6.25253 7.58341 5.91675 7.9192 5.91675 8.33341C5.91675 8.74763 6.25253 9.08341 6.66675 9.08341V7.58341ZM13.3334 9.08341C13.7476 9.08341 14.0834 8.74763 14.0834 8.33341C14.0834 7.9192 13.7476 7.58341 13.3334 7.58341V9.08341ZM6.66675 10.9167C6.25253 10.9167 5.91675 11.2525 5.91675 11.6667C5.91675 12.081 6.25253 12.4167 6.66675 12.4167V10.9167ZM10.0001 12.4167C10.4143 12.4167 10.7501 12.081 10.7501 11.6667C10.7501 11.2525 10.4143 10.9167 10.0001 10.9167V12.4167ZM2.57676 15.6518L2.91726 14.9835H2.91726L2.57676 15.6518ZM1.8484 14.9234L1.18015 15.2639H1.18015L1.8484 14.9234ZM18.1518 14.9234L18.82 15.2639V15.2639L18.1518 14.9234ZM17.4234 15.6518L17.7639 16.32L17.7639 16.32L17.4234 15.6518ZM17.4234 4.3484L17.7639 3.68015L17.7639 3.68015L17.4234 4.3484ZM18.1518 5.07676L18.82 4.73627V4.73627L18.1518 5.07676ZM2.57676 4.3484L2.91726 5.01666L2.57676 4.3484ZM1.8484 5.07676L2.51666 5.41726L1.8484 5.07676ZM5.66675 17.8334L6.11675 18.4334H6.11675L5.66675 17.8334ZM7.6223 16.3667L8.0723 16.9667L8.0723 16.9667L7.6223 16.3667ZM8.56921 15.8644L8.7131 16.6004H8.71311L8.56921 15.8644ZM8.16335 15.9997L7.83682 15.3245H7.83682L8.16335 15.9997ZM6.66675 9.08341H13.3334V7.58341H6.66675V9.08341ZM6.66675 12.4167H10.0001V10.9167H6.66675V12.4167ZM4.33341 4.91675H15.6667V3.41675H4.33341V4.91675ZM17.5834 6.83341V13.1667H19.0834V6.83341H17.5834ZM2.41675 13.1667V6.83341H0.916748V13.1667H2.41675ZM4.33342 15.0834C3.85433 15.0834 3.54012 15.0828 3.29983 15.0632C3.06829 15.0443 2.97217 15.0115 2.91726 14.9835L2.23627 16.32C2.53788 16.4737 2.85338 16.5317 3.17768 16.5582C3.49322 16.584 3.87908 16.5834 4.33342 16.5834V15.0834ZM0.916748 13.1667C0.916748 13.6211 0.916165 14.0069 0.941946 14.3225C0.968442 14.6468 1.02647 14.9623 1.18015 15.2639L2.51666 14.5829C2.48868 14.528 2.45588 14.4319 2.43696 14.2003C2.41733 13.96 2.41675 13.6458 2.41675 13.1667H0.916748ZM2.91726 14.9835C2.74478 14.8956 2.60454 14.7554 2.51666 14.5829L1.18015 15.2639C1.41184 15.7186 1.78155 16.0883 2.23627 16.32L2.91726 14.9835ZM17.5834 13.1667C17.5834 13.6458 17.5828 13.96 17.5632 14.2003C17.5443 14.4319 17.5115 14.528 17.4835 14.5829L18.82 15.2639C18.9737 14.9623 19.0317 14.6468 19.0582 14.3225C19.084 14.0069 19.0834 13.6211 19.0834 13.1667H17.5834ZM15.6667 16.5834C16.1211 16.5834 16.5069 16.584 16.8225 16.5582C17.1468 16.5317 17.4623 16.4737 17.7639 16.32L17.0829 14.9835C17.028 15.0115 16.9319 15.0443 16.7003 15.0632C16.46 15.0828 16.1458 15.0834 15.6667 15.0834V16.5834ZM17.4835 14.5829C17.3956 14.7554 17.2554 14.8956 17.0829 14.9835L17.7639 16.32C18.2186 16.0883 18.5883 15.7186 18.82 15.2639L17.4835 14.5829ZM15.6667 4.91675C16.1458 4.91675 16.46 4.91733 16.7003 4.93696C16.9319 4.95588 17.028 4.98868 17.0829 5.01666L17.7639 3.68015C17.4623 3.52647 17.1468 3.46844 16.8225 3.44195C16.5069 3.41616 16.1211 3.41675 15.6667 3.41675V4.91675ZM19.0834 6.83341C19.0834 6.37908 19.084 5.99322 19.0582 5.67768C19.0317 5.35338 18.9737 5.03788 18.82 4.73627L17.4835 5.41726C17.5115 5.47217 17.5443 5.56829 17.5632 5.79983C17.5828 6.04012 17.5834 6.35433 17.5834 6.83341H19.0834ZM17.0829 5.01666C17.2554 5.10454 17.3956 5.24477 17.4835 5.41726L18.82 4.73627C18.5883 4.28155 18.2186 3.91184 17.7639 3.68015L17.0829 5.01666ZM4.33341 3.41675C3.87908 3.41675 3.49322 3.41616 3.17768 3.44195C2.85338 3.46844 2.53788 3.52647 2.23627 3.68015L2.91726 5.01666C2.97217 4.98868 3.06829 4.95588 3.29983 4.93696C3.54012 4.91733 3.85433 4.91675 4.33341 4.91675V3.41675ZM2.41675 6.83341C2.41675 6.35433 2.41733 6.04012 2.43696 5.79983C2.45588 5.56829 2.48868 5.47217 2.51666 5.41726L1.18015 4.73627C1.02647 5.03788 0.968442 5.35338 0.941946 5.67768C0.916165 5.99322 0.916748 6.37908 0.916748 6.83341H2.41675ZM2.23627 3.68015C1.78155 3.91184 1.41184 4.28155 1.18015 4.73627L2.51666 5.41726C2.60454 5.24477 2.74477 5.10454 2.91726 5.01666L2.23627 3.68015ZM4.25008 16.5001V17.5001H5.75008V16.5001H4.25008ZM15.6667 15.0834H9.2223V16.5834H15.6667V15.0834ZM6.11675 18.4334L8.0723 16.9667L7.1723 15.7667L5.21675 17.2334L6.11675 18.4334ZM9.2223 15.0834C8.921 15.0834 8.67141 15.0802 8.42532 15.1283L8.71311 16.6004C8.78378 16.5866 8.86399 16.5834 9.2223 16.5834V15.0834ZM8.0723 16.9667C8.35895 16.7518 8.42505 16.7062 8.48988 16.6749L7.83682 15.3245C7.61109 15.4336 7.41335 15.586 7.1723 15.7667L8.0723 16.9667ZM8.42532 15.1283C8.22154 15.1681 8.02375 15.2341 7.83682 15.3245L8.48988 16.6749C8.56078 16.6406 8.63581 16.6156 8.7131 16.6004L8.42532 15.1283ZM4.25008 17.5001C4.25008 18.4615 5.34764 19.0102 6.11675 18.4334L5.21675 17.2334C5.43649 17.0686 5.75008 17.2254 5.75008 17.5001H4.25008ZM4.33342 16.5834C4.28739 16.5834 4.25008 16.5461 4.25008 16.5001H5.75008C5.75008 15.7177 5.11582 15.0834 4.33342 15.0834V16.5834Z" fill="#3C4242"/>
</svg>
