<svg width="24" height="24" viewBox="0 0 24 24" fill="none" xmlns="http://www.w3.org/2000/svg">
<path d="M8.34799 1.04346H1.0435C0.766746 1.04346 0.501328 1.1534 0.305634 1.34909C0.10994 1.54478 0 1.8102 0 2.08696V9.39145C0 9.6682 0.10994 9.93362 0.305634 10.1293C0.501328 10.325 0.766746 10.4349 1.0435 10.4349H8.34799C8.62475 10.4349 8.89017 10.325 9.08586 10.1293C9.28155 9.93362 9.39149 9.6682 9.39149 9.39145V2.08696C9.39149 1.8102 9.28155 1.54478 9.08586 1.34909C8.89017 1.1534 8.62475 1.04346 8.34799 1.04346Z" fill="#2E2E58"/>
<path d="M23.719 5.05664L18.945 0.282634C18.764 0.101664 18.5185 0 18.2625 0C18.0066 0 17.7611 0.101664 17.5801 0.282634L12.8061 5.05664C12.6251 5.23766 12.5234 5.48313 12.5234 5.73909C12.5234 5.99505 12.6251 6.24053 12.8061 6.42154L17.5801 11.1955C17.7611 11.3765 18.0066 11.4782 18.2625 11.4782C18.5185 11.4782 18.764 11.3765 18.945 11.1955L23.719 6.42154C23.9 6.24053 24.0016 5.99505 24.0016 5.73909C24.0016 5.48313 23.9 5.23766 23.719 5.05664Z" fill="#2E2E58"/>
<path d="M21.9144 14.6084H14.6099C14.3332 14.6084 14.0677 14.7183 13.872 14.914C13.6763 15.1097 13.5664 15.3751 13.5664 15.6519V22.9564C13.5664 23.2331 13.6763 23.4986 13.872 23.6943C14.0677 23.89 14.3332 23.9999 14.6099 23.9999H21.9144C22.1912 23.9999 22.4566 23.89 22.6523 23.6943C22.848 23.4986 22.9579 23.2331 22.9579 22.9564V15.6519C22.9579 15.3751 22.848 15.1097 22.6523 14.914C22.4566 14.7183 22.1912 14.6084 21.9144 14.6084Z" fill="#2E2E58"/>
<path d="M8.34799 14.6084H1.0435C0.766746 14.6084 0.501328 14.7183 0.305634 14.914C0.10994 15.1097 0 15.3751 0 15.6519V22.9564C0 23.2331 0.10994 23.4986 0.305634 23.6943C0.501328 23.89 0.766746 23.9999 1.0435 23.9999H8.34799C8.62475 23.9999 8.89017 23.89 9.08586 23.6943C9.28155 23.4986 9.39149 23.2331 9.39149 22.9564V15.6519C9.39149 15.3751 9.28155 15.1097 9.08586 14.914C8.89017 14.7183 8.62475 14.6084 8.34799 14.6084Z" fill="#2E2E58"/>
</svg>
